<svg xmlns="http://www.w3.org/2000/svg" viewBox="0 0 126.41 50"><defs><style>.cls-1{fill:#fff;}</style></defs><title>资源 1</title><g id="图层_2" data-name="图层 2"><g id="图层_1-2" data-name="图层 1"><path class="cls-1" d="M8.29,50a1.36,1.36,0,0,1-.53-.11,1.25,1.25,0,0,1-.82-1.26v-6a1.27,1.27,0,0,1,.82-1.25,1.4,1.4,0,0,1,.53-.11H9.8L10.06,40h.74l-.26,1.27h3.62a1.29,1.29,0,0,1,.53.11,1.41,1.41,0,0,1,.74.72,1.54,1.54,0,0,1,.1.53v6a1.35,1.35,0,0,1-.1.53,1.43,1.43,0,0,1-.74.73,1.25,1.25,0,0,1-.53.11Zm6.5-7.33a.64.64,0,0,0-.17-.44.69.69,0,0,0-.46-.18H8.29a.6.6,0,0,0-.43.18.58.58,0,0,0-.19.44v1.26h7.12Zm-7.12,4h7.12v-2H7.67Zm6.49,2.62a.65.65,0,0,0,.46-.19.64.64,0,0,0,.17-.45V47.38H7.67v1.25a.58.58,0,0,0,.19.45.57.57,0,0,0,.43.19Z"/><path class="cls-1" d="M26.73,49.92a1.36,1.36,0,0,1-.54-.12,1.34,1.34,0,0,1-.72-.72,1.25,1.25,0,0,1-.11-.53V42.9a1.21,1.21,0,0,1,.11-.52,1.34,1.34,0,0,1,.72-.72,1.24,1.24,0,0,1,.54-.11h2.69V40h.74v1.51h2.7a1.2,1.2,0,0,1,.53.11,1.25,1.25,0,0,1,.82,1.24v5.65a1.27,1.27,0,0,1-.82,1.25,1.31,1.31,0,0,1-.53.12Zm-.46-7.47a.6.6,0,0,0-.17.45v2.5h3.32V42.28H26.73A.65.65,0,0,0,26.27,42.45Zm0,6.55a.63.63,0,0,0,.46.18h2.69v-3H26.1v2.42A.63.63,0,0,0,26.27,49Zm7.21-3.6V42.9a.61.61,0,0,0-.18-.45.6.6,0,0,0-.44-.17h-2.7V45.4Zm-.62,3.78A.6.6,0,0,0,33.3,49a.64.64,0,0,0,.18-.45V46.13H30.16v3Z"/><path class="cls-1" d="M74.48,50a1.41,1.41,0,0,1-.54-.11,1.27,1.27,0,0,1-.82-1.26v-6a1.28,1.28,0,0,1,.82-1.25,1.44,1.44,0,0,1,.54-.11H76L76.24,40H77l-.26,1.27h3.61a1.31,1.31,0,0,1,.54.11,1.39,1.39,0,0,1,.73.72,1.57,1.57,0,0,1,.11.53v6a1.36,1.36,0,0,1-.11.53,1.41,1.41,0,0,1-.73.73,1.27,1.27,0,0,1-.54.11ZM81,42.67a.6.6,0,0,0-.18-.44.69.69,0,0,0-.46-.18H74.48a.62.62,0,0,0-.44.18.6.6,0,0,0-.18.44v1.26H81Zm-7.12,4H81v-2H73.86Zm6.48,2.62a.65.65,0,0,0,.46-.19.61.61,0,0,0,.18-.45V47.38H73.86v1.25a.61.61,0,0,0,.18.45.59.59,0,0,0,.44.19Z"/><path class="cls-1" d="M92.91,49.92a1.31,1.31,0,0,1-.53-.12,1.27,1.27,0,0,1-.72-.72,1.25,1.25,0,0,1-.11-.53V42.9a1.21,1.21,0,0,1,.11-.52,1.27,1.27,0,0,1,.72-.72,1.2,1.2,0,0,1,.53-.11H95.6V40h.74v1.51H99a1.24,1.24,0,0,1,.54.11,1.27,1.27,0,0,1,.82,1.24v5.67a1.29,1.29,0,0,1-.56,1.09,1.45,1.45,0,0,1-.8.26Zm-.45-7.47a.61.61,0,0,0-.18.45v2.5H95.6V42.28H92.91A.61.61,0,0,0,92.46,42.45Zm0,6.55a.61.61,0,0,0,.45.18H95.6v-3H92.28v2.42A.64.64,0,0,0,92.46,49Zm7.2-3.6h0V42.9a.6.6,0,0,0-.17-.45.64.64,0,0,0-.45-.17h-2.7V45.4h3.32ZM99,49.18a.61.61,0,0,0,.45-.18.63.63,0,0,0,.17-.45V46.13H96.34v3H99Z"/><path class="cls-1" d="M43.79,49.76h-.36V49h4v.73H43.79Zm.94-5.65h1l.59-1,.21-.37.62.4-.2.34-2.12,3.62h2.32v.75h-3a.33.33,0,0,1-.31-.19.33.33,0,0,1,0-.36l1.5-2.43H44.08a.32.32,0,0,1-.3-.18.36.36,0,0,1,0-.36l2-3.82L46,40l.62.4s-.09.19-.21.4Zm7.2,5.13a.61.61,0,0,0,.44-.19.58.58,0,0,0,.19-.45V42.68a.57.57,0,0,0-.19-.43.55.55,0,0,0-.44-.19H48.22a.31.31,0,0,1-.3-.16.32.32,0,0,1,0-.35L48.57,40h.78l-.57,1.29h3.15a1.32,1.32,0,0,1,.53.1,1.34,1.34,0,0,1,.73.73,1.28,1.28,0,0,1,.11.52V48.6a1.44,1.44,0,0,1-.11.54,1.37,1.37,0,0,1-.73.73,1.51,1.51,0,0,1-.53.1H50.26v-.73h1.67Zm-1.7-2.36.11.28-.65.34-.16-.39-1-3.06c-.1-.21-.14-.32-.14-.32l.73-.27s0,.13.09.36Z"/><path class="cls-1" d="M117.13,43.59a.32.32,0,0,1,.37.36.42.42,0,0,1,0,.16,11.43,11.43,0,0,1-1.47,2h3.49v.73h-4v1.66a1.27,1.27,0,0,1-.41,1,1.36,1.36,0,0,1-1,.38h-2.34v-.73h2.34a.55.55,0,0,0,.63-.62V46.89h-5.09v-.73h5.31a6.74,6.74,0,0,0,1.55-1.85h-5.64v-.72h6.3Zm-7.33-.91a1.2,1.2,0,0,1,1.09-1.32L110.57,40h.75l.31,1.21a.19.19,0,0,1,0,.08h2.54L113.92,40h.74l.26,1.29h2.54a.19.19,0,0,1,0-.08l.31-1.21h.73l-.31,1.32a1.23,1.23,0,0,1,1.1,1.32v.21a.32.32,0,0,1-.36.36h0a.32.32,0,0,1-.35-.36v-.21a.56.56,0,0,0-.63-.63h-6.79a.55.55,0,0,0-.62.63v.21a.32.32,0,0,1-.36.36h0a.32.32,0,0,1-.36-.36Z"/><rect class="cls-1" x="95.54" y="3.76" width="30.87" height="4.19"/><rect class="cls-1" x="95.54" y="24.07" width="30.87" height="4.19"/><rect class="cls-1" x="108.89" y="10.11" width="4.19" height="21.95"/><path class="cls-1" d="M124.35,20.89H99.75a4.7,4.7,0,0,1-3.56-7.75L107.42.08h5.47L99.37,15.87a.5.5,0,0,0,.38.83h24.6Z"/><polygon class="cls-1" points="66.59 5.65 62.68 0.08 67.72 0 70 3.22 66.59 5.65"/><polygon class="cls-1" points="75.75 5.66 72.19 0.08 76.97 0.08 79.28 3.42 75.75 5.66"/><polygon class="cls-1" points="85.25 5.89 81.88 3.4 84.41 0.08 89.41 0.08 85.25 5.89"/><polygon class="cls-1" points="91.75 9.55 87.56 9.55 87.56 7.38 64.09 7.38 64.09 9.55 59.9 9.55 59.9 3.19 91.75 3.19 91.75 9.55"/><path class="cls-1" d="M78,32.11H65.38V27.92H75.51a3,3,0,0,0,3-3V18.08L82.4,15.6H60.21V11.41H88.86A2.38,2.38,0,0,1,91.15,13a2.24,2.24,0,0,1-.94,2.6l-7.52,4.79v7.05A4.68,4.68,0,0,1,78,32.11Z"/><rect class="cls-1" x="59.99" y="19.65" width="31.75" height="4.19"/><rect class="cls-1" x="12.14" y="18.37" width="4.89" height="13.68"/><polygon class="cls-1" points="22.87 0.08 14.58 12.49 6.68 0.08 0 0.08 14.58 22.16 28.95 0.08 22.87 0.08"/><rect class="cls-1" x="42.35" y="18.37" width="4.89" height="13.68"/><polygon class="cls-1" points="53.08 0.08 44.79 12.49 36.89 0.08 30.21 0.08 44.79 22.16 59.16 0.08 53.08 0.08"/></g></g></svg>